<svg width="1512" height="452" viewBox="0 0 1512 452" fill="none" xmlns="http://www.w3.org/2000/svg">
<mask id="mask0_4_197" style="mask-type:alpha" maskUnits="userSpaceOnUse" x="0" y="0" width="1512" height="452">
<rect width="1512" height="452" fill="url(#paint0_linear_4_197)"/>
</mask>
<g mask="url(#mask0_4_197)">
</g>
<g clip-path="url(#clip0_4_197)">
<g clip-path="url(#clip1_4_197)">
<path d="M841.931 -84.061C839.838 -84.0611 837.809 -83.2149 836.189 -81.6664C834.57 -80.1179 833.461 -77.9627 833.051 -75.5677L812.891 42.0258C811.771 48.5633 816.056 54.6625 821.772 54.6625H871.673C873.766 54.6626 875.795 53.8164 877.415 52.2679C879.034 50.7193 880.143 48.5642 880.553 46.1692L900.713 -71.4243C901.834 -77.9618 897.548 -84.061 891.833 -84.061H841.931Z" fill="#F5F5F5"/>
<path d="M892.331 62.9309C890.237 62.9309 888.208 63.7771 886.589 65.3256C884.97 66.8741 883.861 69.0292 883.451 71.4243L863.291 189.018C862.171 195.555 866.456 201.654 872.172 201.654H922.073C924.166 201.655 926.195 200.808 927.814 199.26C929.434 197.711 930.543 195.556 930.953 193.161L951.113 75.5676C952.234 69.0302 947.948 62.9309 942.233 62.9309H892.331Z" fill="#F5F5F5"/>
<path d="M1018.33 209.923C1016.24 209.923 1014.21 210.769 1012.59 212.317C1010.97 213.866 1009.86 216.021 1009.45 218.416L989.291 336.009C988.171 342.547 992.456 348.646 998.172 348.646H1048.07C1050.17 348.646 1052.2 347.8 1053.81 346.251C1055.43 344.703 1056.54 342.548 1056.95 340.153L1077.11 222.559C1078.23 216.022 1073.95 209.923 1068.23 209.923H1018.33Z" fill="#F5F5F5"/>
<path d="M1194.73 62.9309C1192.64 62.9309 1190.61 63.7771 1188.99 65.3256C1187.37 66.8741 1186.26 69.0292 1185.85 71.4243L1165.69 189.018C1164.57 195.555 1168.86 201.654 1174.57 201.654H1224.47C1226.57 201.655 1228.6 200.808 1230.21 199.26C1231.83 197.711 1232.94 195.556 1233.35 193.161L1253.51 75.5676C1254.63 69.0302 1250.35 62.9309 1244.63 62.9309H1194.73Z" fill="#F5F5F5"/>
</g>
</g>
<defs>
<linearGradient id="paint0_linear_4_197" x1="849.166" y1="-198.149" x2="601.092" y2="631.692" gradientUnits="userSpaceOnUse">
<stop offset="0.5" stop-color="white"/>
<stop offset="0.6" stop-opacity="0"/>
</linearGradient>
<clipPath id="clip0_4_197">
<rect width="1512" height="452" fill="white"/>
</clipPath>
<clipPath id="clip1_4_197">
<rect width="1512" height="452" fill="white" transform="translate(756 -235.187)"/>
</clipPath>
</defs>
</svg>
