<svg width="47" height="47" viewBox="0 0 47 47" fill="none" xmlns="http://www.w3.org/2000/svg">
<path d="M39.7192 16.4417C41.4136 16.9861 42.5942 18.6037 42.5942 20.461V28.6758C42.5942 30.8531 40.9708 32.7008 38.7992 32.8791C38.1476 32.9308 37.4959 32.9787 36.8442 33.0171V38.9415L31.0942 33.1915C28.4991 33.1915 25.9307 33.0861 23.3892 32.8791C22.836 32.8343 22.2978 32.6765 21.808 32.4152M39.7192 16.4417C39.4231 16.3464 39.117 16.2853 38.8069 16.2596C33.674 15.8335 28.5145 15.8335 23.3816 16.2596C21.2138 16.4398 19.5942 18.2856 19.5942 20.461V28.6758C19.5942 30.2801 20.4759 31.7041 21.808 32.4152M39.7192 16.4417V12.8499C39.7192 9.74297 37.5112 7.05005 34.4292 6.64947C30.4633 6.1354 26.4683 5.87803 22.4692 5.87897C18.4155 5.87897 14.4231 6.14155 10.5092 6.64947C7.42724 7.05005 5.21924 9.74297 5.21924 12.8499V24.7831C5.21924 27.89 7.42724 30.5829 10.5092 30.9835C11.6152 31.1272 12.7268 31.2518 13.8442 31.3553V40.379L21.808 32.4152" stroke="#DBFF55" stroke-width="1.5" stroke-linecap="round" stroke-linejoin="round"/>
</svg>
