<svg width="55" height="55" viewBox="0 0 55 55" fill="none" xmlns="http://www.w3.org/2000/svg">
<path d="M21.1569 38.9415V41.2072C21.157 42.0939 20.9824 42.972 20.643 43.7912C20.3037 44.6105 19.8062 45.3548 19.1791 45.9817L17.7819 47.379H38.0319L36.6346 45.9817C36.0075 45.3548 35.5101 44.6105 35.1707 43.7912C34.8314 42.972 34.6568 42.0939 34.6569 41.2072V38.9415M48.1569 11.9415V33.879C48.1569 35.2216 47.6235 36.5093 46.6741 37.4587C45.7247 38.4081 44.437 38.9415 43.0944 38.9415H12.7194C11.3767 38.9415 10.089 38.4081 9.13963 37.4587C8.19023 36.5093 7.65686 35.2216 7.65686 33.879V11.9415M48.1569 11.9415C48.1569 10.5988 47.6235 9.31114 46.6741 8.36174C45.7247 7.41234 44.437 6.87897 43.0944 6.87897H12.7194C11.3767 6.87897 10.089 7.41234 9.13963 8.36174C8.19023 9.31114 7.65686 10.5988 7.65686 11.9415M48.1569 11.9415V27.129C48.1569 28.4716 47.6235 29.7593 46.6741 30.7087C45.7247 31.6581 44.437 32.1915 43.0944 32.1915H12.7194C11.3767 32.1915 10.089 31.6581 9.13963 30.7087C8.19023 29.7593 7.65686 28.4716 7.65686 27.129V11.9415" stroke="#DBFF55" stroke-width="1.5" stroke-linecap="round" stroke-linejoin="round"/>
</svg>
