<svg width="50" height="50" viewBox="0 0 50 50" fill="none" xmlns="http://www.w3.org/2000/svg">
<path d="M7.03174 16.9727V36.879C7.03174 38.0973 7.51572 39.2657 8.37722 40.1272C9.23871 40.9887 10.4072 41.4727 11.6255 41.4727H39.188C40.4063 41.4727 41.5748 40.9887 42.4363 40.1272C43.2978 39.2657 43.7817 38.0973 43.7817 36.879V16.9727M7.03174 16.9727V12.379C7.03174 11.1606 7.51572 9.99219 8.37722 9.1307C9.23871 8.2692 10.4072 7.78522 11.6255 7.78522H39.188C40.4063 7.78522 41.5748 8.2692 42.4363 9.1307C43.2978 9.99219 43.7817 11.1606 43.7817 12.379V16.9727M7.03174 16.9727H43.7817M11.6255 12.379H11.6418V12.3953H11.6255V12.379ZM16.2192 12.379H16.2356V12.3953H16.2192V12.379ZM20.813 12.379H20.8293V12.3953H20.813V12.379Z" stroke="#DBFF55" stroke-width="1.5" stroke-linecap="round" stroke-linejoin="round"/>
</svg>
