<svg width="1512" height="1000" viewBox="0 0 1512 1000" fill="none" xmlns="http://www.w3.org/2000/svg">
<mask id="mask0_4_31" style="mask-type:alpha" maskUnits="userSpaceOnUse" x="0" y="0" width="1512" height="1000">
<rect width="1512" height="1000" fill="url(#paint0_linear_4_31)"/>
</mask>
<g mask="url(#mask0_4_31)">
</g>
<g clip-path="url(#clip0_4_31)">
<path d="M819.881 111.5C817.788 111.5 815.759 112.421 814.139 114.107C812.52 115.792 811.411 118.138 811.001 120.745L790.841 248.745C789.721 255.861 794.006 262.5 799.722 262.5H849.623C851.716 262.5 853.745 261.579 855.364 259.893C856.984 258.208 858.093 255.862 858.503 253.255L878.663 125.255C879.784 118.139 875.498 111.5 869.783 111.5H819.881Z" fill="#FAFAFA"/>
<path d="M870.281 271.5C868.188 271.5 866.159 272.421 864.54 274.107C862.92 275.792 861.811 278.138 861.401 280.745L841.241 408.745C840.121 415.861 844.406 422.5 850.122 422.5H900.023C902.117 422.5 904.146 421.579 905.765 419.893C907.384 418.208 908.493 415.862 908.903 413.255L929.063 285.255C930.184 278.139 925.898 271.5 920.183 271.5H870.281Z" fill="#FAFAFA"/>
<path d="M996.281 431.5C994.188 431.5 992.159 432.421 990.54 434.107C988.92 435.792 987.811 438.138 987.401 440.745L967.241 568.745C966.121 575.861 970.406 582.5 976.122 582.5H1026.02C1028.12 582.5 1030.15 581.579 1031.76 579.893C1033.38 578.208 1034.49 575.862 1034.9 573.255L1055.06 445.255C1056.18 438.139 1051.9 431.5 1046.18 431.5H996.281Z" fill="#FAFAFA"/>
<path d="M1172.68 271.5C1170.59 271.5 1168.56 272.421 1166.94 274.107C1165.32 275.792 1164.21 278.138 1163.8 280.745L1143.64 408.745C1142.52 415.861 1146.81 422.5 1152.52 422.5H1202.42C1204.52 422.5 1206.55 421.579 1208.16 419.893C1209.78 418.208 1210.89 415.862 1211.3 413.255L1231.46 285.255C1232.58 278.139 1228.3 271.5 1222.58 271.5H1172.68Z" fill="#FAFAFA"/>
<path d="M1197.88 591.5C1195.79 591.5 1193.76 592.421 1192.14 594.107C1190.52 595.792 1189.41 598.138 1189 600.745L1168.84 728.745C1167.72 735.861 1172.01 742.5 1177.72 742.5H1227.62C1229.72 742.5 1231.75 741.579 1233.36 739.893C1234.98 738.208 1236.09 735.862 1236.5 733.255L1256.66 605.255C1257.78 598.139 1253.5 591.5 1247.78 591.5H1197.88Z" fill="#FAFAFA"/>
<path d="M1021.48 751.5C1019.39 751.5 1017.36 752.421 1015.74 754.107C1014.12 755.792 1013.01 758.138 1012.6 760.745L992.441 888.745C991.321 895.861 995.606 902.5 1001.32 902.5H1051.22C1053.32 902.5 1055.35 901.579 1056.96 899.893C1058.58 898.208 1059.69 895.862 1060.1 893.255L1080.26 765.255C1081.38 758.139 1077.1 751.5 1071.38 751.5H1021.48Z" fill="#FAFAFA"/>
</g>
<defs>
<linearGradient id="paint0_linear_4_31" x1="1078.64" y1="-286.617" x2="158.408" y2="1104.77" gradientUnits="userSpaceOnUse">
<stop offset="0.4" stop-color="white"/>
<stop offset="0.5" stop-opacity="0"/>
</linearGradient>
<clipPath id="clip0_4_31">
<rect width="1512" height="1000" fill="white"/>
</clipPath>
</defs>
</svg>
