<svg width="193" height="37" viewBox="0 0 193 37" fill="none" xmlns="http://www.w3.org/2000/svg">
<rect x="0.406738" y="0.393066" width="36" height="36" rx="8" fill="white"/>
<path d="M19.8705 27.3931V19.1824H22.7652L23.1986 15.9826H19.8704V13.9396C19.8704 13.0132 20.1406 12.3819 21.5361 12.3819L23.3157 12.3811V9.51914C23.0079 9.48021 21.9514 9.39307 20.7224 9.39307C18.1564 9.39307 16.3997 10.8842 16.3997 13.6228V15.9826H13.4976V19.1824H16.3997V27.393H19.8705V27.3931Z" fill="#0A0A0A"/>
<rect x="52.4067" y="0.393066" width="36" height="36" rx="8" fill="white"/>
<path d="M73.4338 11.0946V11.0913H74.2778L74.5862 11.1529C74.7918 11.1929 74.9784 11.2453 75.1461 11.3101C75.3139 11.375 75.4762 11.4506 75.6331 11.537C75.79 11.6235 75.9323 11.7116 76.06 11.8012C76.1866 11.8898 76.3002 11.9839 76.4008 12.0833C76.5003 12.1838 76.6556 12.2097 76.8666 12.1611C77.0776 12.1124 77.3048 12.0449 77.5483 11.9585C77.7918 11.872 78.0325 11.7748 78.2706 11.6667C78.5086 11.5586 78.6536 11.49 78.7056 11.4609C78.7564 11.4306 78.7835 11.4144 78.7867 11.4122L78.79 11.4074L78.8062 11.3993L78.8224 11.3912L78.8387 11.3831L78.8549 11.375L78.8581 11.3701L78.863 11.3669L78.8679 11.3636L78.8711 11.3587L78.8874 11.3539L78.9036 11.3506L78.9004 11.375L78.8955 11.3993L78.8874 11.4236L78.8792 11.4479L78.8711 11.4641L78.863 11.4803L78.8549 11.5046C78.8495 11.5208 78.8441 11.5424 78.8387 11.5695C78.8333 11.5965 78.7819 11.7045 78.6845 11.8936C78.5871 12.0827 78.4653 12.2745 78.3193 12.469C78.1732 12.6635 78.0423 12.8105 77.9265 12.9099C77.8096 13.0104 77.7323 13.0806 77.6944 13.1206C77.6565 13.1617 77.6105 13.1995 77.5564 13.2341L77.4753 13.2875L77.459 13.2957L77.4428 13.3038L77.4396 13.3086L77.4347 13.3119L77.4298 13.3151L77.4266 13.32L77.4103 13.3281L77.3941 13.3362L77.3909 13.341L77.386 13.3443L77.3811 13.3475L77.3779 13.3524L77.3747 13.3572L77.3698 13.3605L77.3649 13.3637L77.3617 13.3686H77.4428L77.8973 13.2713C78.2003 13.2065 78.4897 13.1282 78.7656 13.0363L79.2039 12.8904L79.2525 12.8742L79.2769 12.8661L79.2931 12.858L79.3094 12.8499L79.3256 12.8418L79.3418 12.8337L79.3743 12.8288L79.4067 12.8256V12.858L79.3986 12.8613L79.3905 12.8661L79.3873 12.871L79.3824 12.8742L79.3775 12.8775L79.3743 12.8823L79.371 12.8872L79.3662 12.8904L79.3613 12.8937L79.358 12.8985L79.3548 12.9034L79.3499 12.9067L79.3418 12.9229L79.3337 12.9391L79.3288 12.9423C79.3267 12.9456 79.258 13.0374 79.1227 13.2179C78.9874 13.3994 78.9144 13.4912 78.9036 13.4934C78.8928 13.4966 78.8776 13.5128 78.8581 13.542C78.8397 13.5723 78.725 13.6928 78.514 13.9035C78.303 14.1142 78.0964 14.3016 77.894 14.4659C77.6906 14.6312 77.5878 14.8344 77.5857 15.0753C77.5824 15.3152 77.57 15.5865 77.5483 15.889C77.5267 16.1916 77.4861 16.5184 77.4266 16.8696C77.3671 17.2208 77.2751 17.6179 77.1507 18.0609C77.0262 18.5039 76.8747 18.9362 76.6962 19.3576C76.5176 19.779 76.331 20.1572 76.1362 20.4922C75.9415 20.8272 75.7629 21.1108 75.6006 21.3431C75.4383 21.5754 75.2733 21.7943 75.1056 21.9996C74.9379 22.2049 74.7258 22.4361 74.4693 22.6933C74.2118 22.9494 74.0711 23.0899 74.0473 23.1147C74.0225 23.1385 73.9164 23.2271 73.7292 23.3805C73.5431 23.535 73.3429 23.6896 73.1286 23.8441C72.9155 23.9975 72.7196 24.1256 72.5411 24.2282C72.3626 24.3309 72.1472 24.4481 71.8951 24.5799C71.6441 24.7129 71.3725 24.836 71.0803 24.9495C70.7882 25.063 70.4798 25.1683 70.1552 25.2656C69.8305 25.3628 69.5168 25.4385 69.2138 25.4925C68.9108 25.5465 68.5672 25.5924 68.1831 25.6303L67.6069 25.687V25.6951H66.5519V25.687L66.414 25.6789C66.322 25.6735 66.2462 25.6681 66.1867 25.6627C66.1272 25.6573 65.9027 25.6275 65.5131 25.5735C65.1236 25.5195 64.8179 25.4655 64.5961 25.4114C64.3743 25.3574 64.0442 25.2548 63.606 25.1035C63.1678 24.9522 62.7929 24.7993 62.4812 24.6448C62.1707 24.4913 61.9759 24.3941 61.8969 24.353C61.819 24.313 61.7314 24.2633 61.634 24.2039L61.4879 24.1148L61.4847 24.1099L61.4798 24.1067L61.4749 24.1034L61.4717 24.0986L61.4554 24.0905L61.4392 24.0823L61.436 24.0775L61.4311 24.0742L61.4262 24.071L61.423 24.0661L61.4197 24.0613L61.4149 24.058H61.4067V24.0256L61.423 24.0289L61.4392 24.0337L61.5122 24.0418C61.5609 24.0472 61.6935 24.0553 61.9099 24.0661C62.1263 24.077 62.3562 24.077 62.5997 24.0661C62.8432 24.0553 63.0921 24.031 63.3463 23.9932C63.6006 23.9554 63.9009 23.8906 64.2471 23.7987C64.5934 23.7068 64.9115 23.5977 65.2015 23.4713C65.4904 23.3438 65.696 23.2487 65.8183 23.186C65.9395 23.1244 66.1245 23.0099 66.3734 22.8424L66.7467 22.5912L66.7499 22.5863L66.7548 22.5831L66.7597 22.5798L66.7629 22.575L66.7662 22.5701L66.771 22.5669L66.7759 22.5636L66.7791 22.5588L66.7954 22.5539L66.8116 22.5507L66.8149 22.5344L66.8197 22.5182L66.8246 22.515L66.8278 22.5101L66.698 22.502C66.6114 22.4966 66.5276 22.4912 66.4464 22.4858C66.3653 22.4804 66.2381 22.4561 66.065 22.4129C65.8919 22.3697 65.7052 22.3048 65.505 22.2184C65.3049 22.1319 65.1101 22.0293 64.9207 21.9104C64.7314 21.7916 64.5945 21.6927 64.5101 21.6138C64.4268 21.536 64.3186 21.4258 64.1855 21.2832C64.0535 21.1395 63.9387 20.9919 63.8414 20.8407C63.744 20.6894 63.6509 20.5149 63.5622 20.3171L63.4275 20.0221L63.4194 19.9978L63.4112 19.9735L63.4064 19.9573L63.4031 19.9411L63.4275 19.9443L63.4518 19.9492L63.6304 19.9735C63.7494 19.9897 63.9361 19.9951 64.1903 19.9897C64.4446 19.9843 64.6204 19.9735 64.7178 19.9573C64.8152 19.9411 64.8747 19.9303 64.8964 19.9249L64.9288 19.9168L64.9694 19.9087L65.01 19.9006L65.0132 19.8957L65.0181 19.8925L65.023 19.8892L65.0262 19.8844L64.9938 19.8763L64.9613 19.8682L64.9288 19.8601L64.8964 19.852L64.8639 19.8438C64.8423 19.8385 64.8044 19.8276 64.7503 19.8114C64.6962 19.7952 64.5501 19.7358 64.3121 19.6331C64.074 19.5305 63.8847 19.4305 63.744 19.3333C63.603 19.2358 63.4685 19.1291 63.3415 19.014C63.2149 18.8973 63.0758 18.7471 62.9243 18.5634C62.7728 18.3797 62.6376 18.1663 62.5186 17.9232C62.3995 17.68 62.3103 17.4477 62.2507 17.2262C62.1915 17.006 62.1524 16.7808 62.1339 16.5535L62.1047 16.2132L62.1209 16.2164L62.1371 16.2213L62.1534 16.2294L62.1696 16.2375L62.1858 16.2456L62.202 16.2537L62.4536 16.3671C62.6214 16.4428 62.8296 16.5076 63.0785 16.5616C63.3274 16.6157 63.4762 16.6454 63.5249 16.6508L63.5979 16.6589H63.744L63.7407 16.654L63.7359 16.6508L63.731 16.6476L63.7277 16.6427L63.7245 16.6378L63.7196 16.6346L63.7148 16.6313L63.7115 16.6265L63.6953 16.6184L63.6791 16.6103L63.6758 16.6054L63.6709 16.6022L63.6661 16.5989L63.6628 16.5941L63.6466 16.586L63.6304 16.5779L63.6271 16.573C63.6239 16.5708 63.5774 16.5362 63.4875 16.4693C63.3988 16.4012 63.3057 16.3131 63.2084 16.2051C63.111 16.097 63.0136 15.9835 62.9162 15.8647C62.8186 15.7456 62.7317 15.6181 62.6565 15.4838C62.5808 15.3487 62.5007 15.1769 62.4163 14.9684C62.333 14.7609 62.2697 14.5518 62.2264 14.3411C62.1831 14.1304 62.1588 13.9224 62.1534 13.7171C62.148 13.5118 62.1534 13.3362 62.1696 13.1903C62.1858 13.0444 62.2183 12.8796 62.267 12.6959C62.3157 12.5123 62.386 12.3178 62.478 12.1124L62.6159 11.8045L62.6241 11.7802L62.6322 11.7559L62.6371 11.7526L62.6403 11.7477L62.6435 11.7429L62.6484 11.7396L62.6533 11.7429L62.6565 11.7477L62.6598 11.7526L62.6646 11.7559L62.6695 11.7591L62.6727 11.764L62.676 11.7688L62.6809 11.7721L62.689 11.7883L62.6971 11.8045L62.702 11.8077L62.7052 11.8126L62.9243 12.0557C63.0704 12.2178 63.2435 12.3988 63.4437 12.5987C63.6439 12.7986 63.7548 12.9023 63.7764 12.9099C63.7981 12.9185 63.8251 12.9434 63.8576 12.9845C63.8901 13.0244 63.9983 13.1201 64.1822 13.2713C64.3662 13.4226 64.6069 13.5982 64.9045 13.7981C65.2021 13.998 65.5321 14.1952 65.8946 14.3897C66.2571 14.5842 66.6466 14.7598 67.0632 14.9165C67.4798 15.0732 67.7719 15.1758 67.9397 15.2245C68.1074 15.2731 68.3941 15.3352 68.7999 15.4108C69.2057 15.4865 69.5113 15.5351 69.7169 15.5567C69.9225 15.5783 70.0632 15.5908 70.1389 15.594L70.2525 15.5972L70.2493 15.5729L70.2444 15.5486L70.212 15.346C70.1903 15.211 70.1795 15.0218 70.1795 14.7787C70.1795 14.5356 70.1984 14.3114 70.2363 14.1061C70.2742 13.9008 70.331 13.6928 70.4067 13.482C70.4825 13.2713 70.5566 13.1022 70.6291 12.9747C70.7027 12.8483 70.799 12.704 70.918 12.542C71.037 12.3799 71.1912 12.2124 71.3806 12.0395C71.57 11.8666 71.7864 11.7126 72.0298 11.5776C72.2733 11.4425 72.4978 11.3398 72.7034 11.2696C72.909 11.1994 73.0821 11.1534 73.2228 11.1318C73.3635 11.1102 73.4338 11.0978 73.4338 11.0946Z" fill="#0A0A0A"/>
<rect x="104.407" y="0.393066" width="36" height="36" rx="8" fill="white"/>
<path fill-rule="evenodd" clip-rule="evenodd" d="M113.407 18.3931C113.407 14.7979 113.407 13.0004 114.263 11.7056C114.646 11.1275 115.141 10.6323 115.719 10.2498C117.014 9.39307 118.812 9.39307 122.407 9.39307C126.002 9.39307 127.799 9.39307 129.094 10.2498C129.672 10.6323 130.167 11.1275 130.55 11.7056C131.407 13.0004 131.407 14.7979 131.407 18.3931C131.407 21.9882 131.407 23.7858 130.55 25.0805C130.167 25.6587 129.672 26.1538 129.094 26.5364C127.799 27.3931 126.002 27.3931 122.407 27.3931C118.812 27.3931 117.014 27.3931 115.719 26.5364C115.141 26.1538 114.646 25.6587 114.263 25.0805C113.407 23.7858 113.407 21.9882 113.407 18.3931ZM127.066 18.3933C127.066 20.9666 124.98 23.0527 122.407 23.0527C119.833 23.0527 117.747 20.9666 117.747 18.3933C117.747 15.82 119.833 13.7339 122.407 13.7339C124.98 13.7339 127.066 15.82 127.066 18.3933ZM122.407 21.4763C124.109 21.4763 125.49 20.096 125.49 18.3933C125.49 16.6906 124.109 15.3103 122.407 15.3103C120.704 15.3103 119.324 16.6906 119.324 18.3933C119.324 20.096 120.704 21.4763 122.407 21.4763ZM127.25 14.5946C127.855 14.5946 128.345 14.1044 128.345 13.4998C128.345 12.8951 127.855 12.405 127.25 12.405C126.645 12.405 126.155 12.8951 126.155 13.4998C126.155 14.1044 126.645 14.5946 127.25 14.5946Z" fill="#0A0A0A"/>
<rect x="156.407" y="0.393066" width="36" height="36" rx="8" fill="white"/>
<path d="M165.407 11.8131C165.407 11.2359 165.609 10.7597 166.015 10.3845C166.42 10.0094 166.947 9.82178 167.596 9.82178C168.233 9.82178 168.748 10.0065 169.142 10.3759C169.548 10.7568 169.75 11.2532 169.75 11.8651C169.75 12.4192 169.553 12.8809 169.16 13.2503C168.754 13.6313 168.221 13.8218 167.561 13.8218H167.544C166.907 13.8218 166.391 13.6313 165.997 13.2503C165.604 12.8694 165.407 12.3903 165.407 11.8131ZM165.633 26.9646V15.3975H169.49V26.9646H165.633ZM171.627 26.9646H175.484V20.5058C175.484 20.1017 175.53 19.79 175.623 19.5707C175.785 19.1782 176.031 18.8463 176.361 18.575C176.691 18.3037 177.106 18.1681 177.604 18.1681C178.901 18.1681 179.55 19.0397 179.55 20.7828V26.9646H183.407V20.3326C183.407 18.6241 183.001 17.3283 182.191 16.4452C181.38 15.562 180.308 15.1205 178.976 15.1205C177.482 15.1205 176.318 15.7612 175.484 17.0426V17.0772H175.467L175.484 17.0426V15.3975H171.627C171.65 15.7669 171.662 16.9156 171.662 18.8434C171.662 20.7713 171.65 23.4783 171.627 26.9646Z" fill="#0A0A0A"/>
</svg>
