<svg width="55" height="55" viewBox="0 0 55 55" fill="none" xmlns="http://www.w3.org/2000/svg">
<path d="M39.2896 35.0512C40.3422 34.3325 41.5767 33.9264 42.8504 33.88C44.1241 33.8335 45.3849 34.1487 46.487 34.7889C47.589 35.4292 48.4873 36.3683 49.0779 37.4978C49.6685 38.6273 49.9272 39.9008 49.8241 41.1712C47.1245 42.1147 44.2571 42.4819 41.4069 42.249C41.3981 39.6989 40.6638 37.2017 39.2896 35.0535C38.0699 33.1405 36.3874 31.566 34.3978 30.4759C32.4081 29.3857 30.1756 28.8149 27.9069 28.8165C25.6385 28.8153 23.4065 29.3862 21.4173 30.4764C19.4281 31.5666 17.7459 33.1408 16.5264 35.0535M41.4046 42.2467L41.4069 42.3165C41.4069 42.8227 41.3799 43.3222 41.3236 43.815C37.2407 46.1575 32.6141 47.3865 27.9069 47.379C23.0244 47.379 18.4411 46.083 14.4901 43.815C14.4323 43.2943 14.4045 42.7706 14.4069 42.2467M14.4069 42.2467C11.5576 42.4881 8.69168 42.1223 5.99414 41.1735C5.89143 39.9035 6.15028 38.6303 6.74075 37.5012C7.33123 36.3722 8.22922 35.4333 9.33089 34.7931C10.4326 34.153 11.6929 33.8377 12.9663 33.8838C14.2396 33.9298 15.4739 34.3354 16.5264 35.0535M14.4069 42.2467C14.415 39.6968 15.153 37.2019 16.5264 35.0535M34.6569 15.3165C34.6569 17.1067 33.9457 18.8236 32.6799 20.0894C31.414 21.3553 29.6971 22.0665 27.9069 22.0665C26.1167 22.0665 24.3998 21.3553 23.1339 20.0894C21.868 18.8236 21.1569 17.1067 21.1569 15.3165C21.1569 13.5263 21.868 11.8094 23.1339 10.5435C24.3998 9.27763 26.1167 8.56647 27.9069 8.56647C29.6971 8.56647 31.414 9.27763 32.6799 10.5435C33.9457 11.8094 34.6569 13.5263 34.6569 15.3165ZM48.1569 22.0665C48.1569 22.7313 48.0259 23.3896 47.7715 24.0038C47.5171 24.618 47.1442 25.1761 46.6741 25.6462C46.204 26.1163 45.6459 26.4892 45.0317 26.7436C44.4175 26.998 43.7592 27.129 43.0944 27.129C42.4296 27.129 41.7713 26.998 41.1571 26.7436C40.5428 26.4892 39.9848 26.1163 39.5147 25.6462C39.0446 25.1761 38.6717 24.618 38.4172 24.0038C38.1628 23.3896 38.0319 22.7313 38.0319 22.0665C38.0319 20.7238 38.5653 19.4361 39.5147 18.4867C40.4641 17.5373 41.7517 17.004 43.0944 17.004C44.437 17.004 45.7247 17.5373 46.6741 18.4867C47.6235 19.4361 48.1569 20.7238 48.1569 22.0665ZM17.7819 22.0665C17.7819 22.7313 17.6509 23.3896 17.3965 24.0038C17.1421 24.618 16.7692 25.1761 16.2991 25.6462C15.829 26.1163 15.2709 26.4892 14.6567 26.7436C14.0425 26.998 13.3842 27.129 12.7194 27.129C12.0546 27.129 11.3963 26.998 10.7821 26.7436C10.1678 26.4892 9.60976 26.1163 9.13966 25.6462C8.66956 25.1761 8.29666 24.618 8.04225 24.0038C7.78783 23.3896 7.65689 22.7313 7.65689 22.0665C7.65689 20.7238 8.19026 19.4361 9.13966 18.4867C10.0891 17.5373 11.3767 17.004 12.7194 17.004C14.062 17.004 15.3497 17.5373 16.2991 18.4867C17.2485 19.4361 17.7819 20.7238 17.7819 22.0665Z" stroke="#DBFF55" stroke-width="1.5" stroke-linecap="round" stroke-linejoin="round"/>
</svg>
