<svg width="54" height="54" viewBox="0 0 54 54" fill="none" xmlns="http://www.w3.org/2000/svg">
<path d="M5.87561 15.8633C5.87561 14.492 6.98861 13.379 8.35999 13.379H21.61C22.9814 13.379 24.0944 14.492 24.0944 15.8633V24.1446C24.0944 25.516 22.9814 26.629 21.61 26.629H8.35999C7.70109 26.629 7.06918 26.3672 6.60327 25.9013C6.13736 25.4354 5.87561 24.8035 5.87561 24.1446V15.8633ZM32.3756 19.1758C32.3756 17.8045 33.4886 16.6915 34.86 16.6915H46.4537C47.8251 16.6915 48.9381 17.8045 48.9381 19.1758V37.3946C48.9381 38.766 47.8251 39.879 46.4537 39.879H34.86C34.2011 39.879 33.5692 39.6172 33.1033 39.1513C32.6374 38.6854 32.3756 38.0535 32.3756 37.3946V19.1758ZM9.18811 35.7383C9.18811 34.367 10.3011 33.254 11.6725 33.254H23.2662C24.6376 33.254 25.7506 34.367 25.7506 35.7383V40.7071C25.7506 42.0785 24.6376 43.1915 23.2662 43.1915H11.6725C11.0136 43.1915 10.3817 42.9297 9.91577 42.4638C9.44986 41.9979 9.18811 41.366 9.18811 40.7071V35.7383Z" stroke="#DBFF55" stroke-width="1.5" stroke-linecap="round" stroke-linejoin="round"/>
</svg>
