<svg width="57" height="57" viewBox="0 0 57 57" fill="none" xmlns="http://www.w3.org/2000/svg">
<path d="M46.4067 33.379V27.254C46.4067 25.1654 45.5771 23.1624 44.1002 21.6855C42.6234 20.2087 40.6203 19.379 38.5317 19.379H35.0317C34.3355 19.379 33.6679 19.1024 33.1756 18.6101C32.6833 18.1178 32.4067 17.4502 32.4067 16.754V13.254C32.4067 11.1654 31.5771 9.16235 30.1002 7.6855C28.6234 6.20865 26.6203 5.37897 24.5317 5.37897H20.1567M32.3624 36.8346L35.9067 40.379M32.3624 36.8346C32.9312 36.2659 33.3827 35.591 33.6905 34.8479C33.9983 34.1048 34.1567 33.3083 34.1567 32.504C34.1567 30.8795 33.5114 29.3216 32.3628 28.1729C31.2141 27.0243 29.6562 26.379 28.0317 26.379C26.4073 26.379 24.8494 27.0243 23.7007 28.1729C22.552 29.3216 21.9067 30.8795 21.9067 32.504C21.9067 33.3083 22.0652 34.1048 22.373 34.8479C22.6808 35.591 23.1319 36.2662 23.7007 36.835C24.2695 37.4038 24.9447 37.8549 25.6878 38.1627C26.4309 38.4705 27.2274 38.629 28.0317 38.629C28.8361 38.629 29.6326 38.4705 30.3757 38.1627C31.1188 37.8549 31.7936 37.4034 32.3624 36.8346ZM25.4067 5.37897H14.0317C12.5827 5.37897 11.4067 6.55497 11.4067 8.00397V46.504C11.4067 47.953 12.5827 49.129 14.0317 49.129H43.7817C45.2307 49.129 46.4067 47.953 46.4067 46.504V26.379C46.4067 20.8094 44.1942 15.468 40.256 11.5297C36.3177 7.59146 30.9763 5.37897 25.4067 5.37897Z" stroke="#DBFF55" stroke-width="1.5" stroke-linecap="round" stroke-linejoin="round"/>
</svg>
