<svg width="48" height="48" viewBox="0 0 48 48" fill="none" xmlns="http://www.w3.org/2000/svg">
<path d="M21.4692 3.06647H17.063C15.8944 3.06647 14.7736 3.5307 13.9473 4.35703C13.121 5.18336 12.6567 6.30411 12.6567 7.47272V39.7852C12.6567 40.9538 13.121 42.0746 13.9473 42.9009C14.7736 43.7272 15.8944 44.1915 17.063 44.1915H31.7505C32.9191 44.1915 34.0398 43.7272 34.8662 42.9009C35.6925 42.0746 36.1567 40.9538 36.1567 39.7852V7.47272C36.1567 6.30411 35.6925 5.18336 34.8662 4.35703C34.0398 3.5307 32.9191 3.06647 31.7505 3.06647H27.3442M21.4692 3.06647V6.00397H27.3442V3.06647M21.4692 3.06647H27.3442M21.4692 39.7852H27.3442" stroke="#DBFF55" stroke-width="1.5" stroke-linecap="round" stroke-linejoin="round"/>
</svg>
